# xmcd
#
# Track frame offsets:
#	150
#	13518
#	23004
#	36815
#	47506
#	57356
#	67538
#	80123
#	90282
#	101270
#	111497
#	124489
#	136974
#	148747
#	163421
#	176876
#	189089
#	200685
#
# Disc length: 2836 seconds
#
# Revision: 0
# Processed by: cddbd v1.5.2PL0 Copyright (c) Steve Scherf et al.
# Submitted via: EasyCDDAExtractor 10.5.1.1
#
DISCID=f50b1212
DTITLE=Various Artist - The Lighter Side of Country
DYEAR=2008
DGENRE=Country
TTITLE0=Lynn Anderson - Rose Garden
TTITLE1=Bobby Lewis - Hello Mary Lou
TTITLE2=Johnny Carver - Tie A Yellow Ribbon
TTITLE3=Slim Whitman - Rose Marie
TTITLE4=Ned Miller - From A Jack To A King
TTITLE5=Johnny Darell - Ruby, Don't Take Your Love To Town
TTITLE6=Stonewall Jackson - Me and You and A Dog Named Boo
TTITLE7=Jack Reno - Hitchin' A Ride
TTITLE8=Johnny Russell - King Of The Road
TTITLE9=Porter Wagoner - Green Green Grass Of Home
TTITLE10=Faron Young - It's Four In The Morning
TTITLE11=Charlie Rich - Behind Closed Doors
TTITLE12=Don Gibson - I Can't Stop Loving You
TTITLE13=Johnny Paycheck - A Good Year For The Roses
TTITLE14=Ray Price - Heartaches By The Number
TTITLE15=Stonewall Jackson - I Love You Because
TTITLE16=Sammi Smith - Help Me Make It Through The Night
TTITLE17=Skeeter Davis - The End Of The World
EXTD=
EXTT0=
EXTT1=
EXTT2=
EXTT3=
EXTT4=
EXTT5=
EXTT6=
EXTT7=
EXTT8=
EXTT9=
EXTT10=
EXTT11=
EXTT12=
EXTT13=
EXTT14=
EXTT15=
EXTT16=
EXTT17=
PLAYORDER=
